<svg width="21" height="21" viewBox="0 0 21 21" fill="none" xmlns="http://www.w3.org/2000/svg">
<path d="M8.87328 2.369C9.47198 0.526375 12.0788 0.526373 12.6775 2.36899L13.6941 5.49767C13.9618 6.32172 14.7297 6.87964 15.5962 6.87964H18.8859C20.8233 6.87964 21.6289 9.35887 20.0614 10.4977L17.4 12.4313C16.6991 12.9406 16.4057 13.8433 16.6735 14.6674L17.6901 17.796C18.2888 19.6387 16.1798 21.1709 14.6124 20.0321L11.951 18.0985C11.25 17.5892 10.3008 17.5892 9.59982 18.0985L6.93841 20.0321C5.37098 21.1709 3.26202 19.6387 3.86072 17.796L4.87729 14.6674C5.14504 13.8433 4.85173 12.9406 4.15075 12.4313L1.48934 10.4977C-0.0780859 9.35887 0.727464 6.87964 2.66491 6.87964H5.95459C6.82105 6.87964 7.58896 6.32172 7.85671 5.49767L8.87328 2.369Z" fill="#1D1D1D"/>
</svg>
