<svg width="21" height="21" viewBox="0 0 21 21" fill="none" xmlns="http://www.w3.org/2000/svg">
<path d="M8.89568 2.52326C9.34471 1.14129 11.2998 1.14129 11.7488 2.52326L12.7654 5.65194C13.1001 6.68199 14.06 7.37939 15.1431 7.37939H18.4327C19.8858 7.37939 20.49 9.23882 19.3144 10.0929L16.653 12.0265C15.7768 12.6632 15.4102 13.7916 15.7448 14.8216L16.7614 17.9503C17.2104 19.3323 15.6287 20.4815 14.4531 19.6274L11.7917 17.6937C10.9155 17.0571 9.72902 17.0571 8.8528 17.6937L6.19139 19.6274C5.01582 20.4815 3.4341 19.3323 3.88313 17.9503L4.8997 14.8216C5.23438 13.7916 4.86774 12.6632 3.99152 12.0265L1.33011 10.0929C0.154538 9.23882 0.758702 7.37939 2.21179 7.37939H5.50147C6.58454 7.37939 7.54443 6.68199 7.87911 5.65194L8.89568 2.52326Z" stroke="#141414"/>
</svg>
